<svg height="32" viewBox="0 0 32 32" width="32" xmlns="http://www.w3.org/2000/svg"><path d="m9.609 0c-.645 0-1.172.136-1.579.401-.405.265-.609.615-.609 1.036v29.084c0 .364.209.703.631 1.009.421.313.937.469 1.557.469.588 0 1.109-.156 1.557-.469.448-.307.672-.645.672-1.009v-29.079c0-.427-.213-.771-.651-1.041-.439-.265-.959-.401-1.579-.401zm12.698 11.547c-.645 0-1.161.136-1.557.401l-5.916 3.713c-.265.245-.38.625-.333 1.141.047.509.281.995.697 1.452.423.459.891.751 1.428.871.525.12.927.057 1.192-.188l2.344-1.464v13.048c0 .364.203.703.609 1.009.401.313.917.469 1.536.469.62 0 1.152-.156 1.6-.469.448-.307.672-.645.672-1.009v-17.537c0-.427-.219-.771-.652-1.036-.432-.265-.973-.401-1.62-.401z"/></svg>